<svg xmlns="http://www.w3.org/2000/svg" width="458.243914" height="176.526046" viewBox="11 10.223954 458.243914 176.526046"><ellipse rx="55" ry="35" stroke="#2563eb" stroke-width="2" stroke-opacity="1" stroke-linecap="round" stroke-linejoin="round" fill="none" fill-opacity="1" opacity="1" cx="80" cy="75"></ellipse><text x="80" y="165.875" font-family="sans-serif" font-size="11" font-weight="normal" fill="#000000" text-anchor="middle" dominant-baseline="middle">ellipse</text><path d="M 162 158 L 166.8 148.88 L 171.6 140.72 L 176.4 133.52 L 181.2 127.28 L 186 122 L 190.8 117.68 L 195.6 114.32 L 200.4 111.92 L 205.2 110.48 L 210 110 L 214.8 110.48 L 219.6 111.92 L 224.4 114.32 L 229.2 117.68 L 234 122 L 238.8 127.28 L 243.6 133.52 L 248.4 140.72 L 253.2 148.88 L 258 158" stroke="#16a34a" stroke-width="2" stroke-opacity="1" stroke-linecap="round" stroke-linejoin="round" fill="none" fill-opacity="1" opacity="1"></path><text x="210" y="165.875" font-family="sans-serif" font-size="11" font-weight="normal" fill="#000000" text-anchor="middle" dominant-baseline="middle">parabola</text><path d="M 304.756086 24.223954 L 313.78657 30.815535 L 321.638181 36.620449 L 328.450711 41.742049 L 334.34545 46.271519 L 339.42735 50.289505 L 343.786889 53.867541 L 347.501685 57.069332 L 350.637876 59.951884 L 353.251301 62.566516 L 355.388488 64.959782 L 357.087489 67.174289 L 358.378553 69.249467 L 359.284665 71.222262 L 359.821959 73.127798 L 360 75 L 359.821959 76.872202 L 359.284665 78.777738 L 358.378553 80.750533 L 357.087489 82.825711 L 355.388488 85.040218 L 353.251301 87.433484 L 350.637876 90.048116 L 347.501685 92.930668 L 343.786889 96.132459 L 339.42735 99.710495 L 334.34545 103.728481 L 328.450711 108.257951 L 321.638181 113.379551 L 313.78657 119.184465 L 304.756086 125.776046 M 455.243914 24.223954 L 446.21343 30.815535 L 438.361819 36.620449 L 431.549289 41.742049 L 425.65455 46.271519 L 420.57265 50.289505 L 416.213111 53.867541 L 412.498315 57.069332 L 409.362124 59.951884 L 406.748699 62.566516 L 404.611512 64.959782 L 402.912511 67.174289 L 401.621447 69.249467 L 400.715335 71.222262 L 400.178041 73.127798 L 400 75 L 400.178041 76.872202 L 400.715335 78.777738 L 401.621447 80.750533 L 402.912511 82.825711 L 404.611512 85.040218 L 406.748699 87.433484 L 409.362124 90.048116 L 412.498315 92.930668 L 416.213111 96.132459 L 420.57265 99.710495 L 425.65455 103.728481 L 431.549289 108.257951 L 438.361819 113.379551 L 446.21343 119.184465 L 455.243914 125.776046" stroke="#dc2626" stroke-width="2" stroke-opacity="1" stroke-linecap="round" stroke-linejoin="round" fill="none" fill-opacity="1" opacity="1"></path><text x="380" y="165.875" font-family="sans-serif" font-size="11" font-weight="normal" fill="#000000" text-anchor="middle" dominant-baseline="middle">hyperbola</text></svg>