<svg xmlns="http://www.w3.org/2000/svg" width="410.46999999999997" height="121.72988530575391" viewBox="2.605000000000004 28.3201146942461 410.46999999999997 121.72988530575391"><defs><marker markerWidth="6" markerHeight="6" viewBox="0 0 10 10" id="arrow-stealth-64748b" refX="9" refY="5" orient="auto"><path d="M 0 0 L 10 5 L 0 10 L 3 5 z" fill="#64748b"></path></marker></defs><g><path d="M 55 110 A 25 25 0 1 0 105 110 A 25 25 0 1 0 55 110" stroke="#334155" stroke-width="1.5" stroke-opacity="1" stroke-linecap="round" stroke-linejoin="round" fill="#f8fafc" fill-opacity="1" opacity="1"></path><text text-anchor="middle" dominant-baseline="middle" x="80" y="110" font-family="sans-serif" font-size="14" font-weight="normal" fill="#334155">q0</text></g><g><path d="M 195 110 A 25 25 0 1 0 245 110 A 25 25 0 1 0 195 110" stroke="#334155" stroke-width="1.5" stroke-opacity="1" stroke-linecap="round" stroke-linejoin="round" fill="#f8fafc" fill-opacity="1" opacity="1"></path><text text-anchor="middle" dominant-baseline="middle" x="220" y="110" font-family="sans-serif" font-size="14" font-weight="normal" fill="#334155">q1</text></g><g><path d="M 333.95 110 A 26.05 26.05 0 1 0 386.05 110 A 26.05 26.05 0 1 0 333.95 110 M 336.05 110 A 23.95 23.95 0 1 0 383.95 110 A 23.95 23.95 0 1 0 336.05 110" stroke="#334155" stroke-width="1.5" stroke-opacity="1" stroke-linecap="round" stroke-linejoin="round" fill="#f8fafc" fill-opacity="1" opacity="1"></path><text text-anchor="middle" dominant-baseline="middle" x="360" y="110" font-family="sans-serif" font-size="14" font-weight="normal" fill="#334155">q2</text></g><g><path d="M 42 110 L 55 110" stroke="#64748b" stroke-width="1.2" stroke-opacity="1" stroke-linecap="round" stroke-linejoin="round" fill="none" fill-opacity="1" opacity="1" marker-end="url(#arrow-stealth-64748b)"></path></g><text x="27.302500000000002" y="110" font-family="sans-serif" font-size="11" font-weight="normal" fill="#000000" text-anchor="middle" dominant-baseline="middle">start</text><g><path d="M 105 110 L 195 110" stroke="#64748b" stroke-width="1.2" stroke-opacity="1" stroke-linecap="round" stroke-linejoin="round" fill="none" fill-opacity="1" opacity="1" marker-end="url(#arrow-stealth-64748b)"></path><text text-anchor="middle" dominant-baseline="middle" x="150" y="105" font-family="sans-serif" font-size="12" fill="#64748b">0</text></g><g><path d="M 245 110 L 333.95 110" stroke="#64748b" stroke-width="1.2" stroke-opacity="1" stroke-linecap="round" stroke-linejoin="round" fill="none" fill-opacity="1" opacity="1" marker-end="url(#arrow-stealth-64748b)"></path><text text-anchor="middle" dominant-baseline="middle" x="289.475" y="105" font-family="sans-serif" font-size="12" fill="#64748b">1</text></g><g><path d="M 195 110 C 167.4224000477168 133.14035394871541, 132.5775999522832 133.14035394871541, 105 110" stroke="#64748b" stroke-width="1.2" stroke-opacity="1" stroke-linecap="round" stroke-linejoin="round" fill="none" fill-opacity="1" opacity="1" marker-end="url(#arrow-stealth-64748b)"></path><text text-anchor="middle" dominant-baseline="middle" x="150" y="132.35526546153656" font-family="sans-serif" font-size="12" fill="#64748b">1</text></g><g><path d="M 333.95 110 C 258.9320557840141 57.471869958971226, 180.01794421598584 57.47186995897116, 105 110" stroke="#64748b" stroke-width="1.2" stroke-opacity="1" stroke-linecap="round" stroke-linejoin="round" fill="none" fill-opacity="1" opacity="1" marker-end="url(#arrow-stealth-64748b)"></path><text text-anchor="middle" dominant-baseline="middle" x="219.47499999999997" y="75.60390246922839" font-family="sans-serif" font-size="12" fill="#64748b">0</text></g><g><path d="M 92.5 88.34936490538904 C 117.50000000000003 45.048094716167085, 42.49999999999995 45.04809471616709, 67.49999999999999 88.34936490538904" stroke="#64748b" stroke-width="1.2" stroke-opacity="1" stroke-linecap="round" stroke-linejoin="round" fill="none" fill-opacity="1" opacity="1" marker-end="url(#arrow-stealth-64748b)"></path><text text-anchor="middle" dominant-baseline="middle" x="80" y="60.873412263472574" font-family="sans-serif" font-size="12" fill="#64748b">1</text></g><g><path d="M 373.025 87.44003823141537 C 399.075 42.3201146942461, 320.92499999999995 42.32011469424611, 346.97499999999997 87.44003823141537" stroke="#64748b" stroke-width="1.2" stroke-opacity="1" stroke-linecap="round" stroke-linejoin="round" fill="none" fill-opacity="1" opacity="1" marker-end="url(#arrow-stealth-64748b)"></path><text text-anchor="middle" dominant-baseline="middle" x="359.9999999999997" y="58.60009557853842" font-family="sans-serif" font-size="12" fill="#64748b">1</text></g></svg>