<svg xmlns="http://www.w3.org/2000/svg" width="440" height="230" viewBox="0 0 440 230"><ellipse rx="160" ry="75" stroke="#334155" stroke-width="1.5" stroke-opacity="1" stroke-linecap="round" stroke-linejoin="round" fill="none" fill-opacity="1" opacity="1" cx="220" cy="115"></ellipse><g><path d="M 351.33294025102566 115 A 10 10 0 1 0 371.33294025102566 115 A 10 10 0 1 0 351.33294025102566 115" stroke="#d97706" stroke-width="2" stroke-opacity="1" stroke-linecap="round" stroke-linejoin="round" fill="#fbbf24" fill-opacity="1" opacity="1"></path></g><text x="361.33294025102566" y="135.875" font-family="sans-serif" font-size="11" font-weight="normal" fill="#000000" text-anchor="middle" dominant-baseline="middle">Sun</text><g><path d="M 68.66705974897431 115 A 10 10 0 1 0 88.66705974897431 115 A 10 10 0 1 0 68.66705974897431 115" stroke="#94a3b8" stroke-width="1" stroke-opacity="1" stroke-linecap="round" stroke-linejoin="round" fill="#94a3b8" fill-opacity="1" opacity="1"></path></g><text x="78.66705974897431" y="135.25" font-family="sans-serif" font-size="10" font-weight="normal" fill="#94a3b8" text-anchor="middle" dominant-baseline="middle">F2</text><g><path d="M 370 115 A 10 10 0 1 0 390 115 A 10 10 0 1 0 370 115" stroke="#2563eb" stroke-width="1.5" stroke-opacity="1" stroke-linecap="round" stroke-linejoin="round" fill="#93c5fd" fill-opacity="1" opacity="1"></path></g><text x="415.675" y="115" font-family="sans-serif" font-size="10" font-weight="normal" fill="#000000" text-anchor="middle" dominant-baseline="middle">perihelion</text><g><path d="M 210 190 A 10 10 0 1 0 230 190 A 10 10 0 1 0 210 190" stroke="#2563eb" stroke-width="1.5" stroke-opacity="1" stroke-linecap="round" stroke-linejoin="round" fill="#93c5fd" fill-opacity="1" opacity="1"></path></g><g><path d="M 50 115.00000000000001 A 10 10 0 1 0 70 115.00000000000001 A 10 10 0 1 0 50 115.00000000000001" stroke="#2563eb" stroke-width="1.5" stroke-opacity="1" stroke-linecap="round" stroke-linejoin="round" fill="#93c5fd" fill-opacity="1" opacity="1"></path></g><text x="27.099999999999998" y="115.00000000000001" font-family="sans-serif" font-size="10" font-weight="normal" fill="#000000" text-anchor="middle" dominant-baseline="middle">aphelion</text><g><path d="M 209.99999999999997 40 A 10 10 0 1 0 229.99999999999997 40 A 10 10 0 1 0 209.99999999999997 40" stroke="#2563eb" stroke-width="1.5" stroke-opacity="1" stroke-linecap="round" stroke-linejoin="round" fill="#93c5fd" fill-opacity="1" opacity="1"></path></g></svg>