<svg xmlns="http://www.w3.org/2000/svg" width="340" height="180" viewBox="0 0 340 180"><defs><marker markerWidth="6" markerHeight="6" viewBox="0 0 10 10" id="arrow-stealth-64748b" refX="9" refY="5" orient="auto"><path d="M 0 0 L 10 5 L 0 10 L 3 5 z" fill="#64748b"></path></marker></defs><g><path d="M 80 70 L 126 70" stroke="#64748b" stroke-width="1" stroke-opacity="1" stroke-linecap="round" stroke-linejoin="round" fill="none" fill-opacity="1" opacity="1" marker-end="url(#arrow-stealth-64748b)"></path></g><g><path d="M 146 90 L 146 136" stroke="#64748b" stroke-width="1" stroke-opacity="1" stroke-linecap="round" stroke-linejoin="round" fill="none" fill-opacity="1" opacity="1" marker-end="url(#arrow-stealth-64748b)"></path></g><g><path d="M 166 156 L 212 156" stroke="#64748b" stroke-width="1" stroke-opacity="1" stroke-linecap="round" stroke-linejoin="round" fill="none" fill-opacity="1" opacity="1" marker-end="url(#arrow-stealth-64748b)"></path></g><g><path d="M 40 70 A 20 20 0 1 0 80 70 A 20 20 0 1 0 40 70" stroke="#2563eb" stroke-width="1.5" stroke-opacity="1" stroke-linecap="round" stroke-linejoin="round" fill="#dbeafe" fill-opacity="1" opacity="1"></path><text text-anchor="middle" dominant-baseline="middle" x="60" y="70" font-family="sans-serif" font-size="14" font-weight="normal" fill="#2563eb">q0</text></g><g><path d="M 126 70 A 20 20 0 1 0 166 70 A 20 20 0 1 0 126 70" stroke="#2563eb" stroke-width="1.5" stroke-opacity="1" stroke-linecap="round" stroke-linejoin="round" fill="#dbeafe" fill-opacity="1" opacity="1"></path><text text-anchor="middle" dominant-baseline="middle" x="146" y="70" font-family="sans-serif" font-size="14" font-weight="normal" fill="#2563eb">q1</text></g><g><path d="M 126 156 A 20 20 0 1 0 166 156 A 20 20 0 1 0 126 156" stroke="#2563eb" stroke-width="1.5" stroke-opacity="1" stroke-linecap="round" stroke-linejoin="round" fill="#dbeafe" fill-opacity="1" opacity="1"></path><text text-anchor="middle" dominant-baseline="middle" x="146" y="156" font-family="sans-serif" font-size="14" font-weight="normal" fill="#2563eb">q2</text></g><g><path d="M 212 156 A 20 20 0 1 0 252 156 A 20 20 0 1 0 212 156" stroke="#2563eb" stroke-width="1.5" stroke-opacity="1" stroke-linecap="round" stroke-linejoin="round" fill="#dbeafe" fill-opacity="1" opacity="1"></path><text text-anchor="middle" dominant-baseline="middle" x="232" y="156" font-family="sans-serif" font-size="14" font-weight="normal" fill="#2563eb">q3</text></g></svg>