<svg xmlns="http://www.w3.org/2000/svg" width="480" height="205" viewBox="0 0 480 205"><path d="M 155 105 L 154.89074313768174 107.31085930625315 L 154.56340662570747 109.61763742142561 L 154.01929096444883 111.91626036219732 L 153.26055791281084 114.20266854803981 L 152.2902218996138 116.47282397081057 L 151.1121380473376 118.72271732624857 L 149.73098685580942 120.94837509477614 L 148.15225560668645 123.14586655910168 L 146.3822165626132 125.31131074622965 L 144.42790204766732 127.44088328161752 L 142.29707650809922 129.53082314337462 L 139.99820566436713 131.57743930457434 L 137.54042287702597 133.57711725194883 L 134.93349286009777 135.5263253694534 L 132.18777288608914 137.4216211754267 L 129.31417163678788 139.25965740233175 L 126.32410586332321 141.0371879083394 L 123.22945502767816 142.75107341031497 L 120.04251410586268 144.3982870280823 L 116.77594474025898 145.97591963017393 L 113.44272493520998 147.48118497162596 L 110.05609749570905 148.91142461474428 L 106.62951741404277 150.2641126241511 L 103.17659841341857 151.53686002782032 L 99.71105886095818 152.72741903622284 L 96.2466672649431 153.83368701213064 L 92.7971875728505 154.85371018406835 L 89.37632448750912 155.78568709685425 L 85.99766901863252 156.62797179313668 L 82.67464448605287 157.37907672030673 L 79.42045318918238 158.0376753576536 L 76.24802395458397 158.60260455912288 L 73.16996077004302 159.07286660753982 L 70.19849270921627 159.4476309766701 L 67.34542534580572 159.726235798006 L 64.62209385028807 159.90818902968724 L 62.03931795554524 159.99316932549243 L 59.60735897031652 159.9810266023662 L 57.33587901125692 159.87178230547966 L 55.23390261557173 159.66562937035636 L 53.30978088673949 159.36293188213025 L 51.57115831577149 158.96422443253772 L 50.02494240982628 158.4702111757792 L 48.677276248843846 157.8817645849178 L 47.53351407923153 157.19992391101104 L 46.59820004156714 156.4258933476978 L 45.87505011683386 155.56103990448088 L 45.366937362913944 154.60689099246176 L 45.07588049999638 153.56513172679172 L 45.00303589024839 152.4376019506026 L 45.14869294361536 151.2262929856739 L 45.51227296800181 149.9333441155743 L 46.0923314684017 148.5610388074895 L 46.88656388584361 147.11180067940785 L 47.89181475335 145.58818921978724 L 49.10409023253448 143.99289526726184 L 50.51857398102902 142.32873625837246 L 52.129646287700496 140.59865125171322 L 53.93090639963271 138.80569573728258 L 55.91519795216938 136.95303624020548 L 58.074637400984884 135.04394472835747 L 60.40064534322304 133.08179283376705 L 62.883980603265805 131.07004589800204 L 65.51477694770972 129.01225685205583 L 68.2825822836823 126.91205994154328 L 71.17640018476474 124.77316430828697 L 74.18473357953921 122.5993474396299 L 77.29563042918676 120.39444849704391 L 80.49673121266052 118.16236153581568 L 83.77531803077626 115.90702862778525 L 87.11836513413087 113.63243289928282 L 90.51259067410273 111.34259149655968 L 93.94450947132827 109.04154849113658 L 97.4004865920069 106.73336773759986 L 100.86679151917689 104.42212569645851 L 104.32965270374072 102.11190423473842 L 107.77531227851043 99.80678341702784 L 111.19008071789483 97.51083429970645 L 114.56039122606745 95.22811174108335 L 117.87285363753148 92.96264724014281 L 121.11430761593695 90.71844181654446 L 124.2718749397919 88.49945894445264 L 127.33301066733765 86.30961755267509 L 130.28555297731157 84.15278510347225 L 133.11777148758097 82.03277076226172 L 135.81841385967925 79.95331867027991 L 138.3767505040857 77.91810133208286 L 140.78261720863588 75.93071312956364 L 143.0264555207009 73.99466397394191 L 145.09935072269803 72.11337310693617 L 146.99306725005687 70.29016306206711 L 148.70008141092654 68.52825379675626 L 150.21361127762887 66.83075700558373 L 151.52764363109986 65.20067062474783 L 152.63695785126953 63.640873537432995 L 153.5371466584643 62.154120489435776 L 154.22463362342725 60.743037224029344 L 154.6966873763883 59.410115844658215 L 154.95143245873308 58.15771041365321 L 154.9878567741566 56.98803279473992 L 154.8058156096983 55.903148746682916 L 154.40603221068335 54.904974274964886 L 153.79009490728563 53.99527224794386 L 152.96045080412898 53.17564928346488 L 151.92039605799707 52.447552911424324 L 150.67406278227904 51.81226901729839 L 149.22640263017882 51.270919571150515 L 147.5831671219118 50.82446064612852 L 145.75088479404815 50.47368072995114 L 143.73683526178885 50.21919933236583 L 141.54902029722285 50.061465891037244 L 139.19613203847243 50.000758977798895 L 136.68751845602978 50.03718580666945 L 134.03314621348719 50.17068204450295 L 131.24356107021353 50.40101192460703 L 128.32984598329696 50.7277686631287 L 125.30357707521341 51.150375177472235 L 122.17677764216009 51.66808510548038 L 118.96187038577906 52.27998412357883 L 115.67162805805128 52.984991561556214 L 112.31912271544927 53.78186231112756 L 108.91767378395986 54.6691890249105 L 105.48079514131359 55.64540460193091 L 102.02214142666192 56.70878495526798 L 98.55545379101248 57.85745205695102 L 95.0945053039545 59.089377254730515 L 91.6530462335732 60.40238485486532 L 88.2447494169532 61.79415596459894 L 84.88315593831386 63.26223258753844 L 81.58162133059578 64.80402196470318 L 78.353262514238 66.41680115357678 L 75.21090568395745 68.0977218370752 L 72.16703535057434 69.84381535393806 L 69.23374474034073 71.65199794165855 L 66.42268774883269 73.51907618269317 L 63.745032640293466 75.44175264433206 L 61.211417676378694 77.41663170227002 L 58.831908850589464 79.44022553759274 L 56.61595989631356 81.50896029658732 L 54.572374727361954 83.61918240249815 L 52.70927246022337 85.7671650080813 L 51.03405515700273 87.9491145775608 L 49.55337841720008 90.16117758636366 L 48.273124935168084 92.39944732680021 L 47.19838112830381 94.659970807671 L 46.33341692883029 96.9387557356145 L 45.68166881945489 99.23177756586608 L 45.24572618030312 101.53498660997613 L 45.027321001371526 103.84431518793383 L 45.027321001371526 106.15568481206614 L 45.24572618030312 108.46501339002384 L 45.681668819454885 110.76822243413389 L 46.333416928830296 113.06124426438551 L 47.19838112830382 115.34002919232901 L 48.27312493516808 117.60055267319976 L 49.55337841720006 119.83882241363632 L 51.034055157002705 122.05088542243917 L 52.709272460223346 124.23283499191868 L 54.57237472736193 126.38081759750182 L 56.615959896313534 128.4910397034127 L 58.831908850589436 130.5597744624073 L 61.211417676378666 132.58336829772995 L 63.74503264029343 134.5582473556679 L 66.42268774883264 136.4809238173068 L 69.2337447403407 138.34800205834142 L 72.1670353505743 140.15618464606194 L 75.2109056839574 141.9022781629248 L 78.35326251423805 143.58319884642324 L 81.58162133059582 145.19597803529683 L 84.88315593831382 146.73776741246155 L 88.24474941695316 148.20584403540104 L 91.65304623357316 149.59761514513468 L 95.09450530395446 150.91062274526948 L 98.55545379101244 152.14254794304895 L 102.02214142666196 153.29121504473204 L 105.48079514131365 154.35459539806908 L 108.9176737839598 155.3308109750895 L 112.31912271544923 156.21813768887245 L 115.67162805805124 157.01500843844377 L 118.96187038577902 157.72001587642117 L 122.17677764216005 158.33191489451963 L 125.30357707521337 158.84962482252774 L 128.32984598329702 159.2722313368713 L 131.2435610702136 159.59898807539298 L 134.03314621348716 159.82931795549703 L 136.68751845602975 159.96281419333053 L 139.1961320384724 159.9992410222011 L 141.54902029722282 159.93853410896276 L 143.73683526178883 159.78080066763417 L 145.75088479404815 159.52631927004887 L 147.5831671219117 159.1755393538715 L 149.22640263017877 158.7290804288495 L 150.674062782279 158.18773098270162 L 151.92039605799704 157.5524470885757 L 152.96045080412893 156.82435071653515 L 153.7900949072856 156.00472775205614 L 154.40603221068332 155.09502572503513 L 154.8058156096983 154.09685125331708 L 154.9878567741566 153.01196720526008 L 154.95143245873308 151.8422895863468 L 154.6966873763883 150.5898841553418 L 154.22463362342728 149.25696277597063 L 153.53714665846434 147.8458795105642 L 152.63695785126953 146.35912646256705 L 151.52764363109992 144.7993293752522 L 150.21361127762893 143.16924299441632 L 148.70008141092657 141.47174620324375 L 146.9930672500569 139.70983693793292 L 145.09935072269806 137.88662689306386 L 143.02645552070095 136.0053360260581 L 140.78261720863588 134.06928687043637 L 138.3767505040857 132.08189866791713 L 135.81841385967925 130.0466813297201 L 133.11777148758097 127.96722923773828 L 130.28555297731154 125.84721489652773 L 127.33301066733759 123.6903824473249 L 124.27187493979184 121.50054105554733 L 121.11430761593691 119.28155818345553 L 117.87285363753152 117.03735275985723 L 114.5603912260675 114.7718882589167 L 111.19008071789487 112.4891657002936 L 107.77531227851043 110.19321658297218 L 104.32965270374072 107.88809576526161 L 100.86679151917689 105.5778743035415 L 97.4004865920069 103.26663226240017 L 93.94450947132823 100.95845150886342 L 90.51259067410268 98.65740850344032 L 87.11836513413083 96.36756710071718 L 83.77531803077612 94.09297137221475 L 80.49673121266056 91.83763846418431 L 77.29563042918662 89.60555150295608 L 74.18473357953926 87.40065256037009 L 71.17640018476462 85.226835691713 L 68.2825822836823 83.08794005845677 L 65.51477694770986 80.98774314794423 L 62.883980603265805 78.929954101998 L 60.40064534322315 76.91820716623296 L 58.07463740098484 74.95605527164255 L 55.91519795216947 73.04696375979455 L 53.93090639963268 71.19430426271744 L 52.129646287700545 69.40134874828678 L 50.51857398102898 67.67126374162754 L 49.10409023253452 66.00710473273816 L 47.89181475334996 64.41181078021276 L 46.88656388584362 62.88819932059214 L 46.09233146840168 61.43896119251049 L 45.51227296800182 60.06665588442567 L 45.14869294361535 58.773707014326085 L 45.00303589024839 57.5623980493974 L 45.075880499996366 56.4348682732083 L 45.36693736291394 55.39310900753827 L 45.87505011683382 54.43896009551916 L 46.59820004156714 53.5741066523022 L 47.53351407923148 52.800076088988966 L 48.67727624884387 52.118235415082225 L 50.02494240982622 51.52978882422079 L 51.57115831577152 51.035775567462274 L 53.30978088673942 50.63706811786975 L 55.233902615571765 50.334370629643644 L 57.33587901125683 50.12821769452034 L 59.60735897031656 50.0189733976338 L 62.03931795554516 50.00683067450756 L 64.62209385028815 50.09181097031276 L 67.34542534580565 50.273764201994 L 70.19849270921635 50.552369023329895 L 73.16996077004293 50.927133392460185 L 76.24802395458408 51.397395440877105 L 79.42045318918234 51.96232464234638 L 82.67464448605301 52.62092327969327 L 85.9976690186325 53.37202820686332 L 89.3763244875093 54.21431290314576 L 92.7971875728505 55.14628981593167 L 96.24666726494328 56.16631298786936 L 99.71105886095818 57.272580963777145 L 103.17659841341877 58.463139972179675 L 106.6295174140428 59.735887375848904 L 110.05609749570928 61.088575385255744 L 113.44272493521004 62.518815028374064 L 116.77594474025884 64.02408036982604 L 120.04251410586274 65.60171297191766 L 123.22945502767806 67.248926589685 L 126.32410586332328 68.96281209166057 L 129.3141716367878 70.74034259766822 L 132.1877728860892 72.57837882457326 L 134.9334928600977 74.4736746305466 L 137.54042287702606 76.42288274805114 L 139.99820566436708 78.42256069542564 L 142.2970765080993 80.46917685662538 L 144.4279020476673 82.55911671838248 L 146.38221656261328 84.68868925377036 L 148.15225560668642 86.85413344089834 L 149.73098685580948 89.05162490522389 L 151.1121380473376 91.27728267375146 L 152.29022189961375 93.52717602918938 L 153.26055791281084 95.79733145196013 L 154.0192909644488 98.08373963780262 L 154.56340662570747 100.38236257857434 L 154.89074313768174 102.68914069374682 L 155 104.99999999999997" stroke="#2563eb" stroke-width="1.5" stroke-opacity="1" stroke-linecap="round" stroke-linejoin="round" fill="none" fill-opacity="1" opacity="1"></path><text x="100" y="185" font-family="sans-serif" font-size="11" font-weight="normal" fill="#000000" text-anchor="middle" dominant-baseline="middle">3:2</text><path d="M 298.8908729652601 105 L 301.2637511620118 109.61763742142561 L 303.4726894322382 114.20266854803981 L 305.50891171541366 118.72271732624857 L 307.36432814762384 123.14586655910168 L 309.0315672024078 127.44088328161752 L 310.50400497766157 131.57743930457434 L 311.77579151224745 135.5263253694534 L 312.84187402775433 139.25965740233175 L 313.6980170030689 142.75107341031497 L 314.34081900200283 145.97591963017393 L 314.76772618711993 148.91142461474428 L 314.97704246607304 151.53686002782032 L 314.96793623013957 153.83368701213064 L 314.7404436581837 155.78568709685425 L 314.2954685729187 157.37907672030673 L 313.63477885004 158.60260455912288 L 312.76099939449625 159.4476309766701 L 311.6776017118027 159.90818902968724 L 310.3888901158305 159.9810266023662 L 308.89998462786724 159.66562937035636 L 307.2168006348911 158.96422443253772 L 305.34602538787595 157.8817645849178 L 303.29509143349776 156.4258933476978 L 301.0721470847993 154.60689099246176 L 298.6860240481315 152.4376019506026 L 296.14620233498846 149.9333441155743 L 293.4627725981421 147.11180067940785 L 290.6463960417124 143.99289526726184 L 287.7082620644507 140.59865125171322 L 284.66004380451795 136.95303624020548 L 281.51385176237744 133.08179283376705 L 278.28218568605746 129.01225685205583 L 274.97788490994185 124.77316430828697 L 271.6140773443926 120.39444849704391 L 268.2041273188663 115.90702862778525 L 264.76158248574296 111.34259149655968 L 261.3001199958174 106.73336773759986 L 257.83349215929616 102.11190423473842 L 254.37547180818814 97.51083429970645 L 250.9397975771622 92.96264724014281 L 247.54011932027035 88.49945894445264 L 244.18994388039405 84.15278510347225 L 240.90258142687063 79.95331867027991 L 237.69109257449912 75.93071312956364 L 234.56823649402068 72.11337310693617 L 231.54642022022887 68.52825379675626 L 228.63764935910837 65.20067062474783 L 225.85348038984054 62.154120489435776 L 223.20497475117978 59.410115844658215 L 220.70265489461383 56.98803279473992 L 218.35646247890799 54.904974274964886 L 216.1757188721253 53.17564928346488 L 214.16908811804745 51.81226901729839 L 212.3445425141299 50.82446064612852 L 210.70933093774858 50.21919933236583 L 209.26995004657851 50.000758977798895 L 208.03211846752333 50.17068204450295 L 207.00075407674325 50.7277686631287 L 206.17995446104715 51.66808510548038 L 205.57298063827506 52.984991561556214 L 205.18224410135014 54.6691890249105 L 205.00929723747305 56.70878495526798 L 205.05482716052356 59.089377254730515 L 205.31865298117316 61.79415596459894 L 205.79972652555418 64.80402196470318 L 206.49613649963004 68.0977218370752 L 207.40511608272246 71.65199794165855 L 208.52305392002557 75.44175264433206 L 209.84550847043505 79.44022553759274 L 211.3672256526877 83.61918240249815 L 213.0821597197047 87.9491145775608 L 214.98349727820437 92.39944732680021 L 217.06368435815585 96.9387557356145 L 219.31445642452672 101.53498660997613 L 221.72687121208924 106.15568481206614 L 224.29134425283246 110.76822243413389 L 226.9976869548316 115.34002919232901 L 229.83514708128746 119.83882241363632 L 232.7924514689139 124.23283499191868 L 235.85785081595407 128.4910397034127 L 239.019166361884 132.58336829772995 L 242.26383827334564 136.4809238173068 L 245.5789755440736 140.15618464606194 L 248.95140721056407 143.58319884642324 L 252.36773468000743 146.73776741246155 L 255.81438496258693 149.59761514513468 L 259.27766459665224 152.14254794304895 L 262.7438140525253 154.35459539806908 L 266.1990623987923 156.21813768887245 L 269.62968201389543 157.72001587642117 L 273.0220431256546 158.84962482252774 L 276.3626679620362 159.59898807539298 L 279.6382842980291 159.96281419333053 L 282.8358781858869 159.93853410896276 L 285.9427456592403 159.52631927004887 L 288.94654320566093 158.7290804288495 L 291.8353368071503 157.5524470885757 L 294.59764935371635 156.00472775205614 L 297.2225062416651 154.09685125331708 L 299.69947897544705 151.8422895863468 L 302.018726599828 149.25696277597063 L 304.17103479777603 146.35912646256705 L 306.1478524987293 143.16924299441632 L 307.9413258518013 139.70983693793292 L 309.544329428948 136.0053360260581 L 310.95049453412855 132.08189866791713 L 312.15423450598684 127.96722923773828 L 313.1507669135275 123.6903824473249 L 313.9361325566034 119.28155818345553 L 314.507211195726 114.7718882589167 L 314.86173394870445 110.19321658297218 L 314.998292304862 105.5778743035415 L 314.91634372101623 100.95845150886342 L 314.6162137769905 96.36756710071718 L 314.0990948820929 91.83763846418431 L 313.36704153770165 87.40065256037009 L 312.42296217477883 83.08794005845677 L 311.27060759874166 78.929954101998 L 309.91455608759946 74.95605527164255 L 308.3601952025613 71.19430426271744 L 306.61370038338015 67.67126374162754 L 304.68201041347425 64.41181078021276 L 302.5727998523011 61.43896119251049 L 300.2944485445111 58.773707014326085 L 297.85600832701874 56.4348682732083 L 295.2671670662643 54.43896009551916 L 292.53821016854573 52.800076088988966 L 289.6799797163374 51.52978882422079 L 286.7038313929482 50.63706811786975 L 283.6215893666546 50.12821769452034 L 280.44549931355476 50.00683067450756 L 277.1881797657811 50.273764201994 L 273.86257197836494 50.927133392460185 L 270.48188851392996 51.96232464234638 L 267.0595607494876 53.37202820686332 L 263.60918551388767 55.14628981593167 L 260.1444710679324 57.272580963777145 L 256.6791826417743 59.735887375848904 L 253.22708774597584 62.518815028374064 L 249.80190147350947 65.60171297191766 L 246.417232010011 68.96281209166057 L 243.0865265687737 72.57837882457326 L 239.82301796528185 76.42288274805114 L 236.63967204354142 80.46917685662538 L 233.54913616308278 84.68868925377036 L 230.56368895129427 89.05162490522389 L 227.69519152072067 93.52717602918938 L 224.95504034513738 98.08373963780262 L 222.35412198162538 102.68914069374682 L 219.9027698185317 107.31085930625312 L 217.6107230211573 111.91626036219732 L 215.48708783827917 116.47282397081057 L 213.54030142323512 120.94837509477615 L 211.77809831330927 125.31131074622968 L 210.20747970059458 129.53082314337456 L 208.83468561641916 133.5771172519488 L 207.6651701398466 137.4216211754267 L 206.70357972874604 141.03718790833938 L 205.953734759523 144.3982870280823 L 205.4186143488525 147.48118497162596 L 205.10034451771753 150.26411262415112 L 205.00018974477703 152.7274190362228 L 205.11854794262143 154.8537101840683 L 205.45494887687525 156.62797179313668 L 206.00805603442728 158.0376753576536 L 206.7756719333663 159.07286660753982 L 207.75474685352563 159.726235798006 L 208.94139095295066 159.99316932549243 L 210.33088972215074 159.87178230547966 L 211.91772271473613 159.36293188213025 L 213.69558548002357 158.47021117577924 L 215.6574146104723 157.19992391101104 L 217.79541580443885 155.56103990448088 L 220.10109483275644 153.56513172679172 L 222.56529128611064 151.2262929856739 L 225.17821496913308 148.56103880748947 L 227.92948479662078 145.58818921978727 L 230.80817003734668 142.3287362583725 L 233.80283374160157 138.8056957372826 L 236.90157817993003 135.04394472835747 L 240.09209211253352 131.07004589800204 L 243.36169970154089 126.91205994154328 L 246.697410871818 122.59934743962987 L 250.08597292023526 118.16236153581565 L 253.51392316834952 113.63243289928288 L 256.9676424493142 109.04154849113664 L 260.4334092165122 104.42212569645854 L 263.897454058943 99.80678341702787 L 267.3460144067735 95.22811174108335 L 270.7653892097085 90.71844181654444 L 274.1419933709456 86.30961755267515 L 277.46241172045063 82.03277076226176 L 280.7134523131161 77.9181013320829 L 283.882198840054 73.99466397394193 L 286.9560619447909 70.29016306206711 L 289.92282924048993 66.83075700558373 L 292.77071382947975 63.640873537432995 L 295.48840113232643 60.74303722402934 L 298.0650938403945 58.1577104136532 L 300.49055481330436 55.9031487466829 L 302.75514775085327 53.99527224794384 L 304.84987547781265 52.4475529114243 L 306.76641568949674 51.27091957115049 L 308.497154016086 50.47368072995116 L 310.03521427434214 50.06146589103725 L 311.37448578652425 50.03718580666945 L 312.50964765797 50.40101192460702 L 313.43618991688675 51.150375177472235 L 314.15043143236494 52.27998412357882 L 314.64953453942564 53.78186231112755 L 314.931516312998 55.645404601930906 L 314.99525644603426 57.85745205695103 L 314.8405017004639 60.402384854865325 L 314.46786691330254 63.262232587538456 L 313.87883255391887 66.41680115357678 L 313.0757388421638 69.84381535393811 L 312.0617764507317 73.51907618269323 L 310.8409738286916 77.41663170227008 L 309.41818119655227 81.5089602965872 L 307.79905127644895 85.76716500808124 L 305.99001683400905 90.16117758636358 L 303.99826512112384 94.65997080767093 L 301.831709321163 99.23177756586605 L 299.49895711008065 103.8443151879338 L 297.0092764583187 108.46501339002381 L 294.3725588093747 113.06124426438548 L 291.5992797813267 117.60055267319979 L 288.700457547445 122.05088542243918 L 285.6876090612458 126.38081759750185 L 282.5727042999015 130.5597744624073 L 279.3681187077992 134.558247355668 L 276.08658402918707 138.34800205834148 L 272.74113772524953 141.90227816292486 L 269.3450711765767 145.19597803529675 L 265.9118768768167 148.20584403540101 L 262.45519482731214 150.91062274526942 L 258.9887583456908 153.29121504473198 L 255.52633950371296 155.3308109750895 L 252.0816944111497 157.01500843844377 L 248.6685085630779 158.33191489451963 L 245.3003424677255 159.2722313368713 L 241.99057777088692 159.82931795549706 L 238.75236409095442 159.9992410222011 L 235.59856677578932 159.78080066763417 L 232.54171578899314 159.17553935387147 L 229.59395592865286 158.1877309827016 L 226.76699857633974 156.8243507165351 L 224.07207516806176 155.0950257250351 L 221.51989257202916 153.01196720526013 L 219.12059055051458 150.58988415534185 L 216.88370147481362 147.8458795105643 L 214.81811245335405 144.79932937525223 L 212.9320300234204 141.47174620324378 L 211.23294754677153 137.8866268930639 L 209.7276154386881 134.06928687043637 L 208.42201434872925 130.04668132972012 L 207.32133139975053 125.84721489652775 L 206.42993957958512 121.50054105554736 L 205.7513803672646 117.03735275985716 L 205.2883496628048 112.48916570029354 L 205.04268707645753 107.88809576526154 L 205.01536861998187 103.2666322624001 L 205.2065028289719 98.65740850344025 L 205.61533033164739 94.09297137221488 L 206.24022686582035 89.60555150295619 L 207.07870973205075 85.22683569171313 L 208.12744765735434 80.98774314794424 L 209.38227403027224 76.91820716623297 L 210.8382034547226 73.04696375979458 L 212.4894515568624 69.4013487482868 L 214.32945796627212 66.00710473273818 L 216.35091238015357 62.888199320592165 L 218.54578360699523 60.06665588442569 L 220.905351474308 57.56239804939737 L 223.42024147367016 55.39310900753824 L 226.08046200543012 53.57410665230217 L 228.87544407510205 52.11823541508221 L 231.7940832837338 51.03577556746226 L 234.8247839454286 50.334370629643665 L 237.95550515673455 50.01897339763381 L 241.17380863487563 50.09181097031275 L 244.4669081347606 50.552369023329895 L 247.82172024843817 51.3973954408771 L 251.22491638517357 52.620923279693265 L 254.66297572563028 54.214312903145746 L 258.1222389397718 56.166312987869354 L 261.5889624550634 58.46313997217967 L 265.0493730593665 61.08857538525572 L 268.48972262159174 64.02408036982608 L 271.8963427127048 67.24892658968506 L 275.2556989100777 70.74034259766827 L 278.5544445694365 74.47367463054664 L 281.7794738507693 78.42256069542572 L 284.9179737875246 82.55911671838237 L 287.95747519223085 86.85413344089822 L 290.88590219628827 91.27728267375134 L 293.69162022711527 95.7973314519601 L 296.36348223203566 100.38236257857432 L 298.89087296526014 104.99999999999994" stroke="#16a34a" stroke-width="1.5" stroke-opacity="1" stroke-linecap="round" stroke-linejoin="round" fill="none" fill-opacity="1" opacity="1"></path><text x="260" y="185" font-family="sans-serif" font-size="11" font-weight="normal" fill="#000000" text-anchor="middle" dominant-baseline="middle">3:4</text><path d="M 420 105 L 425.76822243413386 109.61763742142561 L 431.47282397081057 114.20266854803981 L 437.0508854224392 118.72271732624857 L 442.4408832816175 123.14586655910168 L 447.58336829773 127.44088328161752 L 452.4216211754267 131.57743930457434 L 456.9022781629248 135.5263253694534 L 460.9759196301739 139.25965740233175 L 464.5976151451347 142.75107341031497 L 467.72741903622284 145.97591963017393 L 470.3308109750895 148.91142461474428 L 472.3790767203067 151.53686002782032 L 473.84962482252774 153.83368701213064 L 474.726235798006 155.78568709685425 L 474.9992410222011 157.37907672030673 L 474.6656293703563 158.60260455912288 L 473.7290804288495 159.4476309766701 L 472.19992391101107 159.90818902968724 L 470.0950257250351 159.9810266023662 L 467.43760195060264 159.66562937035636 L 464.25696277597063 158.96422443253772 L 460.58818921978724 157.8817645849178 L 456.47174620324375 156.4258933476978 L 451.95303624020545 154.60689099246176 L 447.08189866791713 152.4376019506026 L 441.9120599415433 149.9333441155743 L 436.5005410555474 147.11180067940785 L 430.9070286277852 143.99289526726184 L 425.1932165829721 140.59865125171322 L 419.4221256964585 136.95303624020548 L 413.6574085034403 133.08179283376705 L 407.9626472401428 129.01225685205583 L 402.40065256037013 124.77316430828697 L 397.0327707622617 120.39444849704391 L 391.91820716623295 115.90702862778525 L 387.11337310693614 111.34259149655968 L 382.67126374162757 106.73336773759986 L 378.640873537433 102.11190423473842 L 375.0666558844257 97.51083429970645 L 371.9880327947399 92.96264724014281 L 369.4389600955192 88.49945894445264 L 367.44755291142434 84.15278510347225 L 366.0357755674623 79.95331867027991 L 365.2191993323658 75.93071312956364 L 365.00683067450757 72.11337310693617 L 365.401011924607 68.52825379675626 L 366.3973954408771 65.20067062474783 L 367.9849915615562 62.154120489435776 L 370.14628981593165 59.410115844658215 L 372.85745205695105 56.98803279473992 L 376.0885753852557 54.904974274964886 L 379.80402196470317 53.17564928346488 L 383.96281209166057 51.81226901729839 L 388.51907618269314 50.82446064612852 L 393.4225606954256 50.21919933236583 L 398.61918240249815 50.000758977798895 L 404.05162490522383 50.17068204450295 L 409.659970807671 50.7277686631287 L 415.3823625785744 51.66808510548038 L 421.1556848120661 52.984991561556214 L 426.9162603621973 54.6691890249105 L 432.6005526731998 56.70878495526798 L 438.14586655910165 59.089377254730515 L 443.4910397034127 61.79415596459894 L 448.57711725194883 64.80402196470318 L 453.3480020583414 68.0977218370752 L 457.751073410315 71.65199794165855 L 461.73776741246155 75.44175264433206 L 465.26411262415115 79.44022553759274 L 468.291215044732 83.61918240249815 L 470.78568709685425 87.9491145775608 L 472.72001587642114 92.39944732680021 L 474.0728666075398 96.9387557356145 L 474.82931795549706 101.53498660997613 L 474.9810266023662 106.15568481206614 L 474.5263192700489 110.76822243413389 L 473.4702111757792 115.34002919232901 L 471.82435071653515 119.83882241363632 L 469.60689099246173 124.23283499191868 L 466.8422895863468 128.4910397034127 L 463.5610388074895 132.58336829772995 L 459.7993293752522 136.4809238173068 L 455.59865125171325 140.15618464606194 L 451.0053360260581 143.58319884642324 L 446.07004589800204 146.73776741246155 L 440.8472148965277 149.59761514513468 L 435.39444849704387 152.14254794304895 L 429.7718882589166 154.35459539806908 L 424.0415484911366 156.21813768887245 L 418.26663226240015 157.72001587642117 L 412.51083429970646 158.84962482252774 L 406.8376384641843 159.59898807539298 L 401.30961755267515 159.96281419333053 L 395.98774314794423 159.93853410896276 L 390.9307131295637 159.52631927004887 L 386.1943042627174 158.7290804288495 L 381.83075700558373 157.5524470885757 L 377.88819932059215 156.00472775205614 L 374.4101158446582 154.09685125331708 L 371.4348682732083 151.8422895863468 L 368.99527224794383 149.25696277597063 L 367.11823541508227 146.35912646256705 L 365.82446064612856 143.16924299441632 L 365.12821769452034 139.70983693793292 L 365.03718580666947 136.0053360260581 L 365.5523690233299 132.08189866791713 L 366.6680851054804 127.96722923773828 L 368.3720282068633 123.6903824473249 L 370.6454046019309 119.28155818345553 L 373.46313997217965 114.7718882589167 L 376.7941559645989 110.19321658297218 L 380.60171297191766 105.5778743035415 L 384.84381535393806 100.95845150886342 L 389.4736746305466 96.36756710071718 L 394.4402255375927 91.83763846418431 L 399.68868925377035 87.40065256037009 L 405.1611775863636 83.08794005845677 L 410.79733145196013 78.929954101998 L 416.5349866099761 74.95605527164255 L 422.3108593062531 71.19430426271744 L 428.0612442643855 67.67126374162754 L 433.7227173262486 64.41181078021276 L 439.2328349919187 61.43896119251049 L 444.5308231433747 58.773707014326085 L 449.5582473556679 56.4348682732083 L 454.25965740233175 54.43896009551916 L 458.5831988464232 52.800076088988966 L 462.48118497162596 51.52978882422079 L 465.9106227452695 50.63706811786975 L 468.83368701213067 50.12821769452034 L 471.21813768887245 50.00683067450756 L 473.0376753576536 50.273764201994 L 474.2722313368713 50.927133392460185 L 474.90818902968726 51.96232464234638 L 474.93853410896276 53.37202820686332 L 474.3629318821302 55.14628981593167 L 473.1877309827016 57.272580963777145 L 471.4258933476978 59.735887375848904 L 469.096851253317 62.518815028374064 L 466.2262929856739 65.60171297191766 L 462.84587951056426 68.96281209166057 L 458.9928952672619 72.57837882457326 L 454.70983693793295 76.42288274805114 L 450.0439447283575 80.46917685662538 L 445.0466813297201 84.68868925377036 L 439.77316430828694 89.05162490522389 L 434.2815581834556 93.52717602918938 L 428.6324328992829 98.08373963780262 L 422.88809576526165 102.68914069374682 L 417.11190423473846 107.31085930625312 L 411.36756710071717 111.91626036219732 L 405.71844181654444 116.47282397081057 L 400.2268356917131 120.94837509477615 L 394.95331867027977 125.31131074622968 L 389.9560552716426 129.53082314337456 L 385.2901630620671 133.5771172519488 L 381.0071047327382 137.4216211754267 L 377.15412048943574 141.03718790833938 L 373.7737070143261 144.3982870280823 L 370.9031487466829 147.48118497162596 L 368.57410665230213 150.26411262415112 L 366.81226901729843 152.7274190362228 L 365.6370681178698 154.8537101840683 L 365.06146589103724 156.62797179313668 L 365.09181097031274 158.0376753576536 L 365.7277686631287 159.07286660753982 L 366.9623246423464 159.726235798006 L 368.78186231112755 159.99316932549243 L 371.16631298786933 159.87178230547966 L 374.08937725473055 159.36293188213025 L 377.51881502837404 158.47021117577924 L 381.4168011535768 157.19992391101104 L 385.7403425976683 155.56103990448088 L 390.4417526443321 153.56513172679172 L 395.46917685662544 151.2262929856739 L 400.7671650080814 148.56103880748947 L 406.27728267375136 145.58818921978727 L 411.93875573561445 142.3287362583725 L 417.6891406937468 138.8056957372826 L 423.4650133900238 135.04394472835747 L 429.2026685480398 131.07004589800204 L 434.8388224136363 126.91205994154328 L 440.31131074622965 122.59934743962987 L 445.5597744624073 118.16236153581565 L 450.5263253694533 113.63243289928288 L 455.15618464606183 109.04154849113664 L 459.3982870280822 104.42212569645854 L 463.205844035401 99.80678341702787 L 466.5368600278203 95.22811174108335 L 469.3545953980691 90.71844181654444 L 471.6279717931367 86.30961755267515 L 473.3319148945196 82.03277076226176 L 474.4476309766701 77.9181013320829 L 474.96281419333053 73.99466397394193 L 474.87178230547966 70.29016306206711 L 474.1755393538715 66.83075700558373 L 472.88176458491773 63.640873537432995 L 471.0047277520561 60.74303722402934 L 468.56513172679166 58.1577104136532 L 465.58988415534174 55.9031487466829 L 462.1118006794078 53.99527224794384 L 458.1692429944162 52.4475529114243 L 453.80569573728246 51.27091957115049 L 449.06928687043654 50.47368072995116 L 444.0122568520558 50.06146589103725 L 438.6903824473251 50.03718580666945 L 433.16236153581565 50.40101192460702 L 427.4891657002937 51.150375177472235 L 421.7333677375998 52.27998412357882 L 415.95845150886356 53.78186231112755 L 410.22811174108324 55.645404601930906 L 404.6055515029562 57.85745205695103 L 399.1527851034722 60.402384854865325 L 393.929954101998 63.262232587538456 L 388.9946639739418 66.41680115357678 L 384.4013487482868 69.84381535393811 L 380.2006706247477 73.51907618269323 L 376.43896119251053 77.41663170227008 L 373.1577104136533 81.5089602965872 L 370.3931090075383 85.76716500808124 L 368.1756492834649 90.16117758636358 L 366.5297888242208 94.65997080767093 L 365.4736807299512 99.23177756586605 L 365.01897339763383 103.8443151879338 L 365.17068204450294 108.46501339002381 L 365.9271333924602 113.06124426438548 L 367.2799841235788 117.60055267319979 L 369.21431290314575 122.05088542243918 L 371.70878495526796 126.38081759750185 L 374.7358873758489 130.5597744624073 L 378.26223258753845 134.558247355668 L 382.2489265896851 138.34800205834148 L 386.6519979416586 141.90227816292486 L 391.42288274805105 145.19597803529675 L 396.5089602965872 148.20584403540101 L 401.85413344089824 150.91062274526942 L 407.3994473268001 153.29121504473198 L 413.0837396378026 155.3308109750895 L 418.8443151879338 157.01500843844377 L 424.61763742142557 158.33191489451963 L 430.340029192329 159.2722313368713 L 435.9483750947761 159.82931795549706 L 441.38081759750185 159.9992410222011 L 446.57743930457434 159.78080066763417 L 451.48092381730686 159.17553935387147 L 456.03718790833943 158.1877309827016 L 460.1959780352969 156.8243507165351 L 463.9114246147443 155.0950257250351 L 467.14254794304895 153.01196720526013 L 469.8537101840683 150.58988415534185 L 472.0150084384438 147.8458795105643 L 473.6026045591229 144.79932937525223 L 474.598988075393 141.47174620324378 L 474.99316932549243 137.8866268930639 L 474.7808006676342 134.06928687043637 L 473.9642244325377 130.04668132972012 L 472.55244708857566 125.84721489652775 L 470.5610399044808 121.50054105554736 L 468.01196720526 117.03735275985716 L 464.93334411557424 112.48916570029354 L 461.35912646256696 107.88809576526154 L 457.3287362583724 103.2666322624001 L 452.88662689306375 98.65740850344025 L 448.0817928337671 94.09297137221488 L 442.9672292377385 89.60555150295619 L 437.5993474396299 85.22683569171313 L 432.03735275985736 80.98774314794424 L 426.34259149655963 76.91820716623297 L 420.57787430354165 73.04696375979458 L 414.8067834170278 69.4013487482868 L 409.0929713722149 66.00710473273818 L 403.49945894445256 62.888199320592165 L 398.0879400584568 60.06665588442569 L 392.91810133208276 57.56239804939737 L 388.0469637597946 55.39310900753824 L 383.52825379675613 53.57410665230217 L 379.4118107802128 52.11823541508221 L 375.74303722402925 51.03577556746226 L 372.5623980493975 50.334370629643665 L 369.90497427496496 50.01897339763381 L 367.800076088989 50.09181097031275 L 366.27091957115056 50.552369023329895 L 365.3343706296437 51.3973954408771 L 365.0007589777989 52.620923279693265 L 365.273764201994 54.214312903145746 L 366.15037517747226 56.166312987869354 L 367.6209232796933 58.46313997217967 L 369.66918902491045 61.08857538525572 L 372.27258096377716 64.02408036982608 L 375.4023848548653 67.24892658968506 L 379.0240803698261 70.74034259766827 L 383.0977218370752 74.47367463054664 L 387.5783788245733 78.42256069542572 L 392.4166317022699 82.55911671838237 L 397.55911671838237 86.85413344089822 L 402.9491145775607 91.27728267375134 L 408.5271760291893 95.7973314519601 L 414.231777565866 100.38236257857432 L 419.99999999999994 104.99999999999994" stroke="#dc2626" stroke-width="1.5" stroke-opacity="1" stroke-linecap="round" stroke-linejoin="round" fill="none" fill-opacity="1" opacity="1"></path><text x="420" y="185" font-family="sans-serif" font-size="11" font-weight="normal" fill="#000000" text-anchor="middle" dominant-baseline="middle">5:4</text></svg>