<svg xmlns="http://www.w3.org/2000/svg" width="340" height="240" viewBox="0 0 340 240"><defs><marker markerWidth="6" markerHeight="6" viewBox="0 0 10 10" id="arrow-stealth-64748b" refX="9" refY="5" orient="auto"><path d="M 0 0 L 10 5 L 0 10 L 3 5 z" fill="#64748b"></path></marker></defs><g><path d="M 36.75 120 A 23.25 23.25 0 1 0 83.25 120 A 23.25 23.25 0 1 0 36.75 120" stroke="#334155" stroke-width="1.5" stroke-opacity="1" stroke-linecap="round" stroke-linejoin="round" fill="#f1f5f9" fill-opacity="1" opacity="1"></path><text text-anchor="middle" dominant-baseline="middle" x="60" y="120" font-family="sans-serif" font-size="11" font-weight="normal" fill="#334155">start</text></g><g><path d="M 123.25 50 A 18 18 0 1 0 159.25 50 A 18 18 0 1 0 123.25 50" stroke="#334155" stroke-width="1.5" stroke-opacity="1" stroke-linecap="round" stroke-linejoin="round" fill="#f1f5f9" fill-opacity="1" opacity="1"></path><text text-anchor="middle" dominant-baseline="middle" x="141.25" y="50" font-family="sans-serif" font-size="11" font-weight="normal" fill="#334155">H</text></g><g><path d="M 199.25 15 A 18 18 0 1 0 235.25 15 A 18 18 0 1 0 199.25 15" stroke="#334155" stroke-width="1.5" stroke-opacity="1" stroke-linecap="round" stroke-linejoin="round" fill="#f1f5f9" fill-opacity="1" opacity="1"></path><text text-anchor="middle" dominant-baseline="middle" x="217.25" y="15" font-family="sans-serif" font-size="11" font-weight="normal" fill="#334155">HH</text></g><g><path d="M 199.25 85 A 18 18 0 1 0 235.25 85 A 18 18 0 1 0 199.25 85" stroke="#334155" stroke-width="1.5" stroke-opacity="1" stroke-linecap="round" stroke-linejoin="round" fill="#f1f5f9" fill-opacity="1" opacity="1"></path><text text-anchor="middle" dominant-baseline="middle" x="217.25" y="85" font-family="sans-serif" font-size="11" font-weight="normal" fill="#334155">HT</text></g><g><path d="M 123.25 190 A 18 18 0 1 0 159.25 190 A 18 18 0 1 0 123.25 190" stroke="#334155" stroke-width="1.5" stroke-opacity="1" stroke-linecap="round" stroke-linejoin="round" fill="#f1f5f9" fill-opacity="1" opacity="1"></path><text text-anchor="middle" dominant-baseline="middle" x="141.25" y="190" font-family="sans-serif" font-size="11" font-weight="normal" fill="#334155">T</text></g><g><path d="M 199.25 155 A 18 18 0 1 0 235.25 155 A 18 18 0 1 0 199.25 155" stroke="#334155" stroke-width="1.5" stroke-opacity="1" stroke-linecap="round" stroke-linejoin="round" fill="#f1f5f9" fill-opacity="1" opacity="1"></path><text text-anchor="middle" dominant-baseline="middle" x="217.25" y="155" font-family="sans-serif" font-size="11" font-weight="normal" fill="#334155">TH</text></g><g><path d="M 199.25 225 A 18 18 0 1 0 235.25 225 A 18 18 0 1 0 199.25 225" stroke="#334155" stroke-width="1.5" stroke-opacity="1" stroke-linecap="round" stroke-linejoin="round" fill="#f1f5f9" fill-opacity="1" opacity="1"></path><text text-anchor="middle" dominant-baseline="middle" x="217.25" y="225" font-family="sans-serif" font-size="11" font-weight="normal" fill="#334155">TT</text></g><g><path d="M 77.61440205323406 104.82451515413679 L 127.61304357168976 61.74876246131344" stroke="#64748b" stroke-width="1.2" stroke-opacity="1" stroke-linecap="round" stroke-linejoin="round" fill="none" fill-opacity="1" opacity="1" marker-end="url(#arrow-stealth-64748b)"></path><text text-anchor="middle" dominant-baseline="middle" x="105.35001466653407" y="74.32950503227782" font-family="sans-serif" font-size="12" fill="#64748b">1/2</text></g><g><path d="M 77.61440205323407 135.1754848458632 L 127.61304357168976 178.25123753868655" stroke="#64748b" stroke-width="1.2" stroke-opacity="1" stroke-linecap="round" stroke-linejoin="round" fill="none" fill-opacity="1" opacity="1" marker-end="url(#arrow-stealth-64748b)"></path><text text-anchor="middle" dominant-baseline="middle" x="111.87710492281882" y="158.0944080631049" font-family="sans-serif" font-size="12" fill="#64748b">1/2</text></g><g><path d="M 157.59955959171447 42.47059755644729 L 200.90044040828553 22.529402443552716" stroke="#64748b" stroke-width="1.2" stroke-opacity="1" stroke-linecap="round" stroke-linejoin="round" fill="none" fill-opacity="1" opacity="1" marker-end="url(#arrow-stealth-64748b)"></path><text text-anchor="middle" dominant-baseline="middle" x="182.35460501922387" y="25.56551225542086" font-family="sans-serif" font-size="12" fill="#64748b">1/2</text></g><g><path d="M 157.59955959171447 57.52940244355271 L 200.90044040828553 77.47059755644729" stroke="#64748b" stroke-width="1.2" stroke-opacity="1" stroke-linecap="round" stroke-linejoin="round" fill="none" fill-opacity="1" opacity="1" marker-end="url(#arrow-stealth-64748b)"></path><text text-anchor="middle" dominant-baseline="middle" x="186.53760637675347" y="65.35139908251568" font-family="sans-serif" font-size="12" fill="#64748b">1/2</text></g><g><path d="M 157.59955959171447 182.4705975564473 L 200.90044040828553 162.52940244355273" stroke="#64748b" stroke-width="1.2" stroke-opacity="1" stroke-linecap="round" stroke-linejoin="round" fill="none" fill-opacity="1" opacity="1" marker-end="url(#arrow-stealth-64748b)"></path><text text-anchor="middle" dominant-baseline="middle" x="182.35460501922418" y="165.56551225542074" font-family="sans-serif" font-size="12" fill="#64748b">1/2</text></g><g><path d="M 157.59955959171447 197.52940244355273 L 200.90044040828553 217.4705975564473" stroke="#64748b" stroke-width="1.2" stroke-opacity="1" stroke-linecap="round" stroke-linejoin="round" fill="none" fill-opacity="1" opacity="1" marker-end="url(#arrow-stealth-64748b)"></path><text text-anchor="middle" dominant-baseline="middle" x="186.53760637675285" y="205.35139908251543" font-family="sans-serif" font-size="12" fill="#64748b">1/2</text></g></svg>