<svg xmlns="http://www.w3.org/2000/svg" width="500" height="320" viewBox="0 0 500 320"><defs><marker markerWidth="6" markerHeight="6" viewBox="0 0 10 10" id="arrow-stealth-64748b" refX="9" refY="5" orient="auto"><path d="M 0 0 L 10 5 L 0 10 L 3 5 z" fill="#64748b"></path></marker><marker markerWidth="6" markerHeight="6" viewBox="0 0 10 10" id="arrow-stealth-2563eb" refX="9" refY="5" orient="auto"><path d="M 0 0 L 10 5 L 0 10 L 3 5 z" fill="#2563eb"></path></marker></defs><g><path d="M 52 110 A 38 38 0 1 0 128 110 A 38 38 0 1 0 52 110" stroke="#334155" stroke-width="1.5" stroke-opacity="1" stroke-linecap="round" stroke-linejoin="round" fill="#f1f5f9" fill-opacity="1" opacity="1"></path><text text-anchor="middle" dominant-baseline="middle" x="90" y="110" font-family="sans-serif" font-size="11" font-weight="normal" fill="#334155">CLOSED</text></g><g><path d="M 207 60 A 43 43 0 1 0 293 60 A 43 43 0 1 0 207 60" stroke="#334155" stroke-width="1.5" stroke-opacity="1" stroke-linecap="round" stroke-linejoin="round" fill="#f1f5f9" fill-opacity="1" opacity="1"></path><text text-anchor="middle" dominant-baseline="middle" x="250" y="60" font-family="sans-serif" font-size="11" font-weight="normal" fill="#334155">SYN SENT</text></g><g><path d="M 354 120 A 56 56 0 1 0 466 120 A 56 56 0 1 0 354 120" stroke="#334155" stroke-width="1.5" stroke-opacity="1" stroke-linecap="round" stroke-linejoin="round" fill="#f1f5f9" fill-opacity="1" opacity="1"></path><text text-anchor="middle" dominant-baseline="middle" x="410" y="120" font-family="sans-serif" font-size="10" font-weight="normal" fill="#334155">ESTABLISHED</text></g><g><path d="M 207 200 A 43 43 0 1 0 293 200 A 43 43 0 1 0 207 200" stroke="#334155" stroke-width="1.5" stroke-opacity="1" stroke-linecap="round" stroke-linejoin="round" fill="#f1f5f9" fill-opacity="1" opacity="1"></path><text text-anchor="middle" dominant-baseline="middle" x="250" y="200" font-family="sans-serif" font-size="11" font-weight="normal" fill="#334155">FIN WAIT</text></g><g><path d="M 54 260 A 36 36 0 1 0 126 260 A 36 36 0 1 0 54 260" stroke="#334155" stroke-width="1.5" stroke-opacity="1" stroke-linecap="round" stroke-linejoin="round" fill="#f1f5f9" fill-opacity="1" opacity="1"></path><text text-anchor="middle" dominant-baseline="middle" x="90" y="260" font-family="sans-serif" font-size="11" font-weight="normal" fill="#334155">LISTEN</text></g><g><path d="M 126.270239 98.66555 C 155.542964 80.121446, 174.334385 74.249127, 208.957361 72.825825" stroke="#64748b" stroke-width="1.2" stroke-opacity="1" stroke-linecap="round" stroke-linejoin="round" fill="none" fill-opacity="1" opacity="1" marker-end="url(#arrow-stealth-64748b)"></path><text text-anchor="middle" dominant-baseline="middle" x="169.186756" y="90.779147" font-family="sans-serif" font-size="12" fill="#64748b">send SYN</text></g><g><path d="M 290.262155 75.098308 C 318.879107 77.882062, 334.174435 83.61781, 357.565566 100.337087" stroke="#64748b" stroke-width="1.2" stroke-opacity="1" stroke-linecap="round" stroke-linejoin="round" fill="none" fill-opacity="1" opacity="1" marker-end="url(#arrow-stealth-64748b)"></path><text text-anchor="middle" dominant-baseline="middle" x="318.289277" y="102.716586" font-family="sans-serif" font-size="12" fill="#64748b">SYN+ACK, ACK</text></g><g><path d="M 359.912077 145.043961 C 336.00387 166.244597, 319.765802 174.363631, 288.460369 180.769815" stroke="#64748b" stroke-width="1.2" stroke-opacity="1" stroke-linecap="round" stroke-linejoin="round" fill="none" fill-opacity="1" opacity="1" marker-end="url(#arrow-stealth-64748b)"></path><text text-anchor="middle" dominant-baseline="middle" x="321.59362" y="157.721681" font-family="sans-serif" font-size="12" fill="#64748b">close / FIN</text></g><g><path d="M 212.522252 178.918767 C 172.77354 168.744267, 152.456014 157.315658, 123.11987 128.629927" stroke="#64748b" stroke-width="1.2" stroke-opacity="1" stroke-linecap="round" stroke-linejoin="round" fill="none" fill-opacity="1" opacity="1" marker-end="url(#arrow-stealth-64748b)"></path><text text-anchor="middle" dominant-baseline="middle" x="169.799483" y="150.257152" font-family="sans-serif" font-size="12" fill="#64748b">ACK / timeout</text></g><g><path d="M 90 148 L 90 224" stroke="#64748b" stroke-width="1.2" stroke-opacity="1" stroke-linecap="round" stroke-linejoin="round" fill="none" fill-opacity="1" opacity="1" marker-end="url(#arrow-stealth-64748b)"></path><text text-anchor="middle" dominant-baseline="middle" x="102" y="186" font-family="sans-serif" font-size="12" fill="#64748b">passive open</text></g><g><path d="M 438 71.502577 C 494 -25.492268, 326 -25.492268, 382 71.502577" stroke="#2563eb" stroke-width="1.2" stroke-opacity="1" stroke-linecap="round" stroke-linejoin="round" fill="none" fill-opacity="1" opacity="1" marker-end="url(#arrow-stealth-2563eb)"></path><text text-anchor="middle" dominant-baseline="middle" x="410" y="3.756443" font-family="sans-serif" font-size="12" fill="#2563eb">data</text></g></svg>